<?xml version="1.0" encoding="UTF-8"?>
<!DOCTYPE svg PUBLIC "-//W3C//DTD SVG 1.1//EN" "http://www.w3.org/Graphics/SVG/1.1/DTD/svg11.dtd">
<!-- Creator: CorelDRAW -->
<svg xmlns="http://www.w3.org/2000/svg" xml:space="preserve" width="367.902mm" height="111.156mm" version="1.1" style="shape-rendering:geometricPrecision; text-rendering:geometricPrecision; image-rendering:optimizeQuality; fill-rule:evenodd; clip-rule:evenodd"
viewBox="0 0 37068.33 11199.6"
 xmlns:xlink="http://www.w3.org/1999/xlink"
 xmlns:xodm="http://www.corel.com/coreldraw/odm/2003">
 <defs>
  <style type="text/css">
   <![CDATA[
    .str0 {stroke:#373435;stroke-width:20.15;stroke-miterlimit:22.9256}
    .fil1 {fill:#FEFEFE}
    .fil0 {fill:#373435}
    .fil2 {fill:#FEFEFE;fill-rule:nonzero}
   ]]>
  </style>
 </defs>
 <g id="Слой_x0020_1">
  <metadata id="CorelCorpID_0Corel-Layer"/>
  <path class="fil1" d="M4313.88 6825.53l0 -753.07 -554.13 0 0 636.12c196.92,23.01 383.21,62.91 554.13,116.95z"/>
  <path class="fil1" d="M5271.31 2497.07c1865.38,0 3377.57,1512.2 3377.57,3377.56 0,1865.38 -1512.2,3377.57 -3377.57,3377.57 -1865.37,0 -3377.56,-1512.2 -3377.56,-3377.57 0,-1865.37 1512.2,-3377.56 3377.56,-3377.56zm3555.34 3377.56c0,-1963.54 -1591.78,-3555.32 -3555.34,-3555.32 -1963.54,0 -3555.32,1591.78 -3555.32,3555.32 0,1963.55 1591.78,3555.34 3555.32,3555.34 1963.55,0 3555.34,-1591.78 3555.34,-3555.34zm-3555.34 3555.34c-1963.54,0 -3555.32,-1591.78 -3555.32,-3555.34 0,-1963.54 1591.78,-3555.32 3555.32,-3555.32 1963.55,0 3555.34,1591.78 3555.34,3555.32 0,1963.55 -1591.78,3555.34 -3555.34,3555.34zm3881.19 -3555.34c0,-2143.51 -1737.68,-3881.18 -3881.19,-3881.18 -2143.51,0 -3881.18,1737.67 -3881.18,3881.18 0,2143.51 1737.67,3881.19 3881.18,3881.19 2143.51,0 3881.19,-1737.68 3881.19,-3881.19zm-3881.19 -3881.18c2143.51,0 3881.19,1737.67 3881.19,3881.18 0,2143.51 -1737.68,3881.19 -3881.19,3881.19 -2143.51,0 -3881.18,-1737.68 -3881.18,-3881.19 0,-2143.51 1737.67,-3881.18 3881.18,-3881.18zm4085.46 3881.18c0,-2256.32 -1829.13,-4085.45 -4085.46,-4085.45 -2256.32,0 -4085.45,1829.13 -4085.45,4085.45 0,2256.33 1829.13,4085.46 4085.45,4085.46 2256.33,0 4085.46,-1829.13 4085.46,-4085.46z"/>
  <path class="fil1" d="M5189.02 5329.41c51.43,44.22 124.49,41.19 166.1,-5.82l1027.72 -1294.17 321.47 276.43 108.83 -1085.93 -1004.34 315.83 286.22 246.14 -887.44 1117.51 -624.53 -537.05c-51.43,-44.22 -124.49,-41.19 -166.1,5.83l-957.57 1205.84c-36.53,51.37 -25.63,126.61 25.79,170.83l95.97 82.52c51.43,44.22 124.49,41.19 166.08,-5.8l817.28 -1029.2 624.52 537.04z"/>
  <path class="fil1" d="M7176.53 6920.57c-911.78,0 -1679.3,359.33 -1907.05,847.86 -231.12,-485.55 -996.16,-842.03 -1904.31,-842.03 -144.56,0 -285.5,9.04 -421.24,26.19l0 931.57c188.82,-26.95 392.28,-41.63 604.34,-41.63 797.48,0 1473.34,207.64 1706.1,494.72 3.32,8.11 6.79,16.19 10.4,24.23 1.3,-1.88 2.62,-3.77 3.96,-5.65 2.81,3.82 5.54,7.65 8.19,11.49 6.87,-15.29 13.21,-30.71 19,-46.25 240.46,-281.71 909.63,-484.37 1697.5,-484.37 212.06,0 415.53,14.68 604.34,41.63l0 -931.57c-135.74,-17.15 -276.68,-26.19 -421.24,-26.19z"/>
  <path class="fil1" d="M6088.53 6837.98c168.49,-64.52 354.98,-114.45 554.13,-146.68l0 -1951.63 -554.13 0 0 2098.31z"/>
  <path class="fil1" d="M5504.17 7088.49l0 -1392.49 -554.13 0 0 1361.28c133.2,108.06 234.98,230.13 297.59,361.65 55.44,-118.91 142.85,-230.17 256.53,-330.45z"/>
  <path class="fil1" d="M13421.2 4192.46l-1925.27 0 0 1233.35 1609.64 0c148.28,0 260.61,33.7 333.61,99.97 73.01,67.41 110.08,157.27 110.08,268.46 0,112.32 -37.07,201.06 -111.19,267.35 -75.25,66.27 -186.47,98.85 -332.49,98.85l-1609.64 0 0 1588.3c0,202.19 -46.07,351.59 -137.05,449.31 -90.98,97.73 -207.81,146.03 -349.32,146.03 -144.93,0 -262.86,-49.43 -353.84,-148.26 -90.98,-98.85 -137.04,-248.25 -137.04,-447.07l0 -3712.41c0,-140.41 21.34,-254.97 62.9,-343.72 41.57,-88.74 106.71,-153.88 195.46,-194.33 88.75,-40.43 202.18,-60.67 340.35,-60.67l2303.82 0c156.15,0 271.83,34.82 347.1,103.36 75.25,69.64 113.44,160.63 113.44,271.83 0,114.57 -38.19,206.68 -113.44,276.32 -75.27,68.51 -190.95,103.34 -347.1,103.34zm1935.4 1008.7l0 2597c0,179.72 -42.69,315.64 -128.05,407.76 -85.37,92.1 -193.21,138.16 -324.62,138.16 -131.44,0 -238.15,-47.17 -320.14,-141.54 -82.01,-94.35 -123.55,-229.14 -123.55,-404.37l0 -2570.04c0,-178.61 41.54,-312.27 123.55,-402.13 82,-89.85 188.71,-134.79 320.14,-134.79 131.41,0 239.25,44.94 324.62,134.79 85.36,89.85 128.05,215.66 128.05,375.16zm-443.69 -927.82c-124.69,0 -231.4,-38.19 -320.13,-114.58 -88.75,-76.37 -132.53,-185.33 -132.53,-325.74 0,-125.8 44.93,-230.26 135.91,-312.26 90.98,-82 196.57,-123.56 316.76,-123.56 116.83,0 219.03,37.06 308.9,111.19 89.86,75.27 134.79,183.1 134.79,324.63 0,138.18 -43.81,246.01 -131.41,323.51 -87.63,77.51 -190.97,116.82 -312.28,116.82zm2187.02 914.35l0 108.96c158.37,-208.93 331.37,-361.69 518.94,-459.42 187.59,-97.73 403.26,-146.03 647,-146.03 237.02,0 448.19,51.66 635.78,155.01 186.47,102.21 325.74,248.23 417.86,436.94 59.54,110.08 97.72,228.04 115.7,356.09 16.85,126.92 25.83,288.68 25.83,486.37l0 1672.55c0,179.72 -41.57,315.64 -123.57,407.76 -82,92.1 -189.82,138.16 -321.24,138.16 -133.67,0 -242.63,-47.17 -326.88,-141.54 -83.12,-94.35 -124.69,-229.14 -124.69,-404.37l0 -1498.44c0,-295.43 -41.55,-522.32 -123.55,-679.57 -82.01,-156.15 -246.02,-234.76 -492,-234.76 -159.52,0 -305.53,47.16 -438.09,142.64 -131.41,95.48 -228.02,226.91 -288.68,394.27 -43.8,133.67 -66.27,383.04 -66.27,750.34l0 1125.52c0,181.98 -42.69,317.9 -126.93,408.88 -84.24,90.98 -193.19,137.04 -325.74,137.04 -129.17,0 -235.88,-47.17 -319.02,-141.54 -83.11,-94.35 -124.67,-229.14 -124.67,-404.37l0 -2597c0,-170.74 37.07,-298.78 111.19,-383.02 75.25,-84.26 176.36,-126.93 305.53,-126.93 78.64,0 150.53,19.09 213.43,56.16 64.02,37.07 114.56,93.23 152.77,167.36 38.19,74.16 57.28,166.26 57.28,272.97zm5379.35 3075.52l-1474.87 0c-213.41,0 -365.05,-47.17 -456.03,-142.66 -90.99,-95.47 -137.04,-248.23 -137.04,-456.04l0 -3628.17c0,-212.3 47.17,-365.07 140.39,-458.3 93.25,-93.22 243.75,-140.41 452.68,-140.41l1563.6 0c230.28,0 430.22,14.61 598.7,42.69 169.61,29.2 321.26,83.11 454.93,165.12 114.58,67.41 214.54,153.9 303.29,258.36 87.61,104.46 153.88,219.03 199.94,344.84 46.06,126.94 69.63,259.48 69.63,399.89 0,483 -241.49,836.84 -724.51,1060.38 634.64,202.19 951.42,594.2 951.42,1178.3 0,269.58 -69.65,513.33 -207.81,729 -138.17,216.8 -324.63,376.3 -559.39,478.52 -147.15,61.78 -315.65,105.59 -506.6,130.31 -190.95,25.83 -414.49,38.19 -668.34,38.19zm-73.02 -2143.21l-1017.69 0 0 1408.58 1050.27 0c661.6,0 991.85,-238.13 991.85,-714.39 0,-243.75 -85.38,-420.09 -257.24,-530.19 -170.74,-108.96 -426.84,-164 -767.2,-164zm-1017.69 -1947.74l0 1246.82 896.39 0c243.75,0 431.32,-23.58 563.87,-69.63 133.67,-46.06 234.76,-133.67 305.53,-262.86 55.03,-92.1 82,-195.44 82,-308.89 0,-243.76 -86.48,-405.5 -260.6,-485.26 -172.99,-79.76 -438.07,-120.18 -793.03,-120.18l-794.16 0zm4712.12 1028.91l0 2597c0,179.72 -42.68,315.64 -128.04,407.76 -85.38,92.1 -193.22,138.16 -324.63,138.16 -131.44,0 -238.15,-47.17 -320.14,-141.54 -82,-94.35 -123.55,-229.14 -123.55,-404.37l0 -2570.04c0,-178.61 41.55,-312.27 123.55,-402.13 82,-89.85 188.71,-134.79 320.14,-134.79 131.41,0 239.25,44.94 324.63,134.79 85.36,89.85 128.04,215.66 128.04,375.16zm-443.68 -927.82c-124.7,0 -231.41,-38.19 -320.14,-114.58 -88.75,-76.37 -132.53,-185.33 -132.53,-325.74 0,-125.8 44.93,-230.26 135.91,-312.26 90.98,-82 196.57,-123.56 316.77,-123.56 116.82,0 219.02,37.06 308.89,111.19 89.86,75.27 134.79,183.1 134.79,324.63 0,138.18 -43.81,246.01 -131.41,323.51 -87.63,77.51 -190.97,116.82 -312.27,116.82zm1373.77 3524.83l0 -3895.51c0,-179.72 40.42,-315.64 120.18,-407.74 79.76,-92.1 187.59,-138.18 323.51,-138.18 134.79,0 244.87,46.08 327.98,137.06 83.12,90.98 124.7,226.89 124.7,408.86l0 3895.51c0,181.98 -42.69,317.9 -126.93,408.88 -84.24,90.98 -193.2,137.04 -325.74,137.04 -131.44,0 -238.15,-47.17 -320.14,-141.54 -82,-94.35 -123.55,-229.14 -123.55,-404.37zm2722.81 -2597l0 2597c0,179.72 -42.69,315.64 -128.05,407.76 -85.38,92.1 -193.22,138.16 -324.63,138.16 -131.44,0 -238.15,-47.17 -320.14,-141.54 -82,-94.35 -123.55,-229.14 -123.55,-404.37l0 -2570.04c0,-178.61 41.55,-312.27 123.55,-402.13 82,-89.85 188.71,-134.79 320.14,-134.79 131.41,0 239.25,44.94 324.63,134.79 85.36,89.85 128.05,215.66 128.05,375.16zm-443.69 -927.82c-124.69,0 -231.41,-38.19 -320.14,-114.58 -88.75,-76.37 -132.53,-185.33 -132.53,-325.74 0,-125.8 44.93,-230.26 135.91,-312.26 90.98,-82 196.57,-123.56 316.77,-123.56 116.82,0 219.03,37.06 308.89,111.19 89.86,75.27 134.8,183.1 134.8,324.63 0,138.18 -43.82,246.01 -131.42,323.51 -87.62,77.51 -190.97,116.82 -312.27,116.82zm4359.42 2310.58l0 1194.03c0,188.72 -42.69,330.25 -128.05,424.6 -85.38,94.37 -198.82,141.54 -338.12,141.54 -135.91,0 -245.99,-47.17 -330.23,-141.54 -84.25,-94.35 -126.94,-235.88 -126.94,-424.6l0 -1431.05c0,-226.9 -7.85,-402.12 -23.58,-526.8 -14.61,-124.69 -56.16,-228.02 -124.69,-307.78 -68.53,-79.76 -175.22,-120.2 -323.51,-120.2 -294.3,0 -487.5,101.11 -580.73,303.3 -93.24,201.06 -140.41,490.85 -140.41,868.27l0 1214.26c0,186.47 -42.69,328.01 -126.92,423.48 -84.24,95.49 -195.46,142.66 -332.49,142.66 -135.91,0 -247.11,-47.17 -333.61,-142.66 -86.5,-95.47 -130.29,-237.01 -130.29,-423.48l0 -2570.04c0,-168.49 39.3,-297.66 116.82,-385.28 77.5,-87.62 179.73,-131.42 306.65,-131.42 123.55,0 225.78,41.55 307.78,123.55 82,82 123.55,195.46 123.55,340.35l0 85.38c155.02,-186.47 322.38,-323.5 499.86,-411.12 177.48,-87.62 375.18,-131.43 591.97,-131.43 226.9,0 420.09,44.93 582.96,134.79 162.87,89.86 296.54,225.77 401.02,407.76 151.65,-184.22 314.52,-320.14 487.5,-408.88 172.98,-88.75 365.07,-133.67 576.24,-133.67 245.99,0 457.17,48.31 634.64,144.9 177.48,96.6 311.15,234.76 398.77,414.49 76.37,161.75 114.56,417.87 114.56,766.07l0 1754.55c0,188.72 -42.67,330.25 -128.05,424.6 -85.36,94.37 -198.81,141.54 -338.1,141.54 -135.91,0 -247.12,-47.17 -333.61,-142.66 -86.5,-95.47 -130.31,-237.01 -130.31,-423.48l0 -1510.81c0,-193.19 -7.86,-347.07 -24.72,-463.9 -16.84,-115.7 -60.65,-213.43 -133.65,-293.18 -71.89,-78.62 -181.99,-117.94 -329.13,-117.94 -119.06,0 -231.4,34.82 -338.11,105.59 -105.58,69.65 -188.7,164 -248.23,283.05 -66.27,150.53 -98.85,418.99 -98.85,803.16z"/>
 </g>
</svg>